<?xml version="1.0" encoding="UTF-8"?>
<!DOCTYPE svg PUBLIC "-//W3C//DTD SVG 1.1//EN" "http://www.w3.org/Graphics/SVG/1.1/DTD/svg11.dtd">
<svg xmlns="http://www.w3.org/2000/svg" version="1.1" width="1160px" height="328px" style="shape-rendering:geometricPrecision; text-rendering:geometricPrecision; image-rendering:optimizeQuality; fill-rule:evenodd; clip-rule:evenodd" xmlns:xlink="http://www.w3.org/1999/xlink">
<g><path style="opacity:1" fill="#fefefe" d="M -0.5,-0.5 C 386.167,-0.5 772.833,-0.5 1159.5,-0.5C 1159.5,108.833 1159.5,218.167 1159.5,327.5C 772.833,327.5 386.167,327.5 -0.5,327.5C -0.5,218.167 -0.5,108.833 -0.5,-0.5 Z"/></g>
<g><path style="opacity:1" fill="#a066cb" d="M 242.5,104.5 C 268.488,149.806 294.488,195.139 320.5,240.5C 307.028,261.862 294.028,283.696 281.5,306C 255.16,306.833 228.827,306.667 202.5,305.5C 190.059,283.606 177.392,261.939 164.5,240.5C 152.002,217.499 139.002,194.833 125.5,172.5C 112.977,149.958 100.31,127.458 87.5,105C 99.3668,84.1011 111.367,63.2678 123.5,42.5C 150.827,41.3335 178.161,41.1668 205.5,42C 217.734,62.979 230.067,83.8123 242.5,104.5 Z"/></g>
<g><path style="opacity:1" fill="#1836b2" d="M 320.5,240.5 C 294.488,195.139 268.488,149.806 242.5,104.5C 254.488,83.8608 266.488,63.1942 278.5,42.5C 305.827,41.3335 333.161,41.1668 360.5,42C 399.265,107.526 437.265,173.526 474.5,240C 461.85,261.99 449.183,283.99 436.5,306C 410.5,306.667 384.5,306.667 358.5,306C 345.695,284.221 333.029,262.388 320.5,240.5 Z"/></g>
<g><path style="opacity:1" fill="#020202" d="M 1092.5,113.5 C 1094.5,113.5 1096.5,113.5 1098.5,113.5C 1098.33,125.838 1098.5,138.171 1099,150.5C 1105.89,142.888 1114.39,140.388 1124.5,143C 1136.44,147.687 1142.94,156.52 1144,169.5C 1146.68,185.863 1142.84,200.363 1132.5,213C 1124.18,218.558 1115.18,219.891 1105.5,217C 1102.22,215.439 1099.38,213.273 1097,210.5C 1096.19,212.436 1095.69,214.436 1095.5,216.5C 1088.5,216.5 1081.5,216.5 1074.5,216.5C 1074.5,182.833 1074.5,149.167 1074.5,115.5C 1080.7,115.348 1086.7,114.682 1092.5,113.5 Z"/></g>
<g><path style="opacity:1" fill="#030303" d="M 585.5,140.5 C 584.509,146.979 584.176,153.646 584.5,160.5C 593.833,160.5 603.167,160.5 612.5,160.5C 612.5,165.833 612.5,171.167 612.5,176.5C 603.318,176.173 594.318,176.507 585.5,177.5C 585.5,184.5 585.5,191.5 585.5,198.5C 596.833,198.5 608.167,198.5 619.5,198.5C 619.5,204.5 619.5,210.5 619.5,216.5C 599.833,216.5 580.167,216.5 560.5,216.5C 560.5,185.167 560.5,153.833 560.5,122.5C 580.167,122.5 599.833,122.5 619.5,122.5C 618.366,128.441 617.699,134.441 617.5,140.5C 606.833,140.5 596.167,140.5 585.5,140.5 Z"/></g>
<g><path style="opacity:1" fill="#040404" d="M 932.5,122.5 C 932.5,134.5 932.5,146.5 932.5,158.5C 941.017,158.826 949.35,158.493 957.5,157.5C 957.5,145.833 957.5,134.167 957.5,122.5C 965.833,122.5 974.167,122.5 982.5,122.5C 982.5,153.833 982.5,185.167 982.5,216.5C 974.167,216.5 965.833,216.5 957.5,216.5C 957.5,203.5 957.5,190.5 957.5,177.5C 949.167,177.5 940.833,177.5 932.5,177.5C 932.5,190.5 932.5,203.5 932.5,216.5C 924.167,216.5 915.833,216.5 907.5,216.5C 907.5,185.167 907.5,153.833 907.5,122.5C 915.833,122.5 924.167,122.5 932.5,122.5 Z"/></g>
<g><path style="opacity:1" fill="#929292" d="M 932.5,122.5 C 933.495,133.988 933.828,145.655 933.5,157.5C 941.5,157.5 949.5,157.5 957.5,157.5C 949.35,158.493 941.017,158.826 932.5,158.5C 932.5,146.5 932.5,134.5 932.5,122.5 Z"/></g>
<g><path style="opacity:1" fill="#020202" d="M 880.5,126.5 C 880.5,132.5 880.5,138.5 880.5,144.5C 885.833,144.5 891.167,144.5 896.5,144.5C 896.5,145.833 896.5,147.167 896.5,148.5C 895.558,152.418 894.892,156.418 894.5,160.5C 889.833,160.5 885.167,160.5 880.5,160.5C 880.172,172.345 880.505,184.012 881.5,195.5C 881.511,197.017 882.177,198.184 883.5,199C 887.213,199.405 890.879,199.405 894.5,199C 897.046,202.59 899.213,206.423 901,210.5C 901.684,211.784 901.517,212.951 900.5,214C 891.605,218.142 882.271,219.475 872.5,218C 863.662,214.523 858.495,208.023 857,198.5C 856.5,185.838 856.333,173.171 856.5,160.5C 853.5,160.5 850.5,160.5 847.5,160.5C 847.5,155.167 847.5,149.833 847.5,144.5C 850.5,144.5 853.5,144.5 856.5,144.5C 856.5,139.167 856.5,133.833 856.5,128.5C 864.506,127.893 872.506,127.227 880.5,126.5 Z"/></g>
<g><path style="opacity:1" fill="#040404" d="M 726.5,141.5 C 756.461,142.138 769.794,157.472 766.5,187.5C 751.833,187.5 737.167,187.5 722.5,187.5C 724.095,199.981 731.095,204.481 743.5,201C 747.363,199.819 750.863,197.986 754,195.5C 757.656,199.479 760.822,203.812 763.5,208.5C 752.415,217.464 739.748,220.63 725.5,218C 708.289,214.125 699.122,203.292 698,185.5C 695.77,162.908 705.27,148.241 726.5,141.5 Z"/></g>
<g><path style="opacity:1" fill="#020202" d="M 812.5,142.5 C 823.78,139.865 832.613,143.198 839,152.5C 840.466,173.767 840.966,195.1 840.5,216.5C 832.5,216.5 824.5,216.5 816.5,216.5C 816.667,198.497 816.5,180.497 816,162.5C 813.833,159.713 810.999,158.88 807.5,160C 805.333,162.167 803.167,164.333 801,166.5C 800.5,183.163 800.333,199.83 800.5,216.5C 792.5,216.5 784.5,216.5 776.5,216.5C 776.5,192.5 776.5,168.5 776.5,144.5C 783.5,144.5 790.5,144.5 797.5,144.5C 797.39,147.059 798.056,149.392 799.5,151.5C 803.599,148.052 807.932,145.052 812.5,142.5 Z"/></g>
<g><path style="opacity:1" fill="#c5c5c5" d="M 880.5,126.5 C 881.489,131.975 881.822,137.642 881.5,143.5C 886.833,143.5 892.167,143.5 897.5,143.5C 897.784,145.415 897.451,147.081 896.5,148.5C 896.5,147.167 896.5,145.833 896.5,144.5C 891.167,144.5 885.833,144.5 880.5,144.5C 880.5,138.5 880.5,132.5 880.5,126.5 Z"/></g>
<g><path style="opacity:1" fill="#020202" d="M 622.5,145.5 C 631.235,144.172 640.068,144.172 649,145.5C 652.591,162.787 655.924,180.12 659,197.5C 663.782,180.097 667.615,162.43 670.5,144.5C 678.84,144.334 687.173,144.5 695.5,145C 688.141,168.079 680.974,191.245 674,214.5C 664.428,216.459 654.595,217.126 644.5,216.5C 637.924,192.508 630.59,168.841 622.5,145.5 Z"/></g>
<g><path style="opacity:1" fill="#060606" d="M 996.5,144.5 C 1004.5,144.5 1012.5,144.5 1020.5,144.5C 1020.33,162.503 1020.5,180.503 1021,198.5C 1023.68,201.835 1026.85,202.335 1030.5,200C 1032.33,198.833 1033.83,197.333 1035,195.5C 1035.5,178.503 1035.67,161.503 1035.5,144.5C 1043.83,144.5 1052.17,144.5 1060.5,144.5C 1060.5,168.5 1060.5,192.5 1060.5,216.5C 1053.17,216.5 1045.83,216.5 1038.5,216.5C 1038.66,213.813 1038.5,211.146 1038,208.5C 1030.23,217.787 1020.4,220.953 1008.5,218C 1001.89,214.958 998.054,209.791 997,202.5C 996.5,183.17 996.333,163.836 996.5,144.5 Z"/></g>
<g><path style="opacity:1" fill="#f4f4f4" d="M 728.5,157.5 C 739.584,156.921 744.584,162.255 743.5,173.5C 736.5,173.5 729.5,173.5 722.5,173.5C 721.561,166.974 723.561,161.64 728.5,157.5 Z"/></g>
<g><path style="opacity:1" fill="#8c8c8c" d="M 585.5,140.5 C 585.5,146.833 585.5,153.167 585.5,159.5C 595.015,159.173 604.348,159.506 613.5,160.5C 613.167,160.5 612.833,160.5 612.5,160.5C 603.167,160.5 593.833,160.5 584.5,160.5C 584.176,153.646 584.509,146.979 585.5,140.5 Z"/></g>
<g><path style="opacity:1" fill="#fcfcfc" d="M 1105.5,159.5 C 1113.24,158.406 1117.74,161.74 1119,169.5C 1119.97,178.306 1119.31,186.973 1117,195.5C 1111.49,203.092 1105.49,203.425 1099,196.5C 1098.33,186.167 1098.33,175.833 1099,165.5C 1101.06,163.266 1103.23,161.266 1105.5,159.5 Z"/></g>
<g><path style="opacity:1" fill="#bdbdbd" d="M 894.5,160.5 C 890.366,161.485 886.032,161.818 881.5,161.5C 881.5,172.833 881.5,184.167 881.5,195.5C 880.505,184.012 880.172,172.345 880.5,160.5C 885.167,160.5 889.833,160.5 894.5,160.5 Z"/></g>
<g><path style="opacity:1" fill="#86c7ed" d="M 125.5,172.5 C 139.002,194.833 152.002,217.499 164.5,240.5C 151.861,262.149 139.194,283.816 126.5,305.5C 100.167,306.833 73.8333,306.833 47.5,305.5C 34.8333,283.5 22.1667,261.5 9.5,239.5C 22.1667,217.5 34.8333,195.5 47.5,173.5C 73.4915,172.5 99.4915,172.167 125.5,172.5 Z"/></g>
<g><path style="opacity:1" fill="#363636" d="M 612.5,160.5 C 612.833,160.5 613.167,160.5 613.5,160.5C 613.5,166.167 613.5,171.833 613.5,177.5C 604.167,177.5 594.833,177.5 585.5,177.5C 594.318,176.507 603.318,176.173 612.5,176.5C 612.5,171.167 612.5,165.833 612.5,160.5 Z"/></g>
</svg>
